HIERARCHY
ROOT root
{
	OFFSET 0.000000 0.000000 0.000000
	CHANNELS 6 Xposition Yposition Zposition Zrotation Yrotation Xrotation
	JOINT lhip
	{
		OFFSET 0.058581 -0.082280 -0.017664
		CHANNELS 3 Zrotation Yrotation Xrotation
		JOINT lknee
		{
			OFFSET 0.043451 -0.386469 0.008037
			CHANNELS 3 Zrotation Yrotation Xrotation
			JOINT lankle
			{
				OFFSET -0.014790 -0.426874 -0.037428
				CHANNELS 3 Zrotation Yrotation Xrotation
				JOINT ltoe
				{
					OFFSET 0.041054 -0.060286 0.122042
					CHANNELS 3 Zrotation Yrotation Xrotation
					End Site
					{
						OFFSET 0.000000 0.000000 0.000000
					}
				}
			}
		}
	}
	JOINT rhip
	{
		OFFSET -0.060310 -0.090513 -0.013543
		CHANNELS 3 Zrotation Yrotation Xrotation
		JOINT rknee
		{
			OFFSET -0.043257 -0.383688 -0.004843
			CHANNELS 3 Zrotation Yrotation Xrotation
			JOINT rankle
			{
				OFFSET 0.019056 -0.420046 -0.034562
				CHANNELS 3 Zrotation Yrotation Xrotation
				JOINT rtoe
				{
					OFFSET -0.034840 -0.062106 0.130323
					CHANNELS 3 Zrotation Yrotation Xrotation
					End Site
					{
						OFFSET 0.000000 0.000000 0.000000
					}
				}
			}
		}
	}
	JOINT lowerback
	{
		OFFSET 0.004439 0.124404 -0.038385
		CHANNELS 3 Zrotation Yrotation Xrotation
		JOINT upperback
		{
			OFFSET 0.004488 0.137956 0.026820
			CHANNELS 3 Zrotation Yrotation Xrotation
			JOINT chest
			{
				OFFSET -0.002265 0.056032 0.002855
				CHANNELS 3 Zrotation Yrotation Xrotation
				JOINT lowerneck
				{
					OFFSET -0.013390 0.211636 -0.033468
					CHANNELS 3 Zrotation Yrotation Xrotation
					JOINT upperneck
					{
						OFFSET 0.010113 0.088937 0.050410
						CHANNELS 3 Zrotation Yrotation Xrotation
						End Site
						{
							OFFSET 0.000000 0.000000 0.000000
						}
					}
				}
				JOINT lclavicle
				{
					OFFSET 0.071702 0.114000 -0.018898
					CHANNELS 3 Zrotation Yrotation Xrotation
					JOINT lshoulder
					{
						OFFSET 0.122921 0.045205 -0.019046
						CHANNELS 3 Zrotation Yrotation Xrotation
						JOINT lelbow
						{
							OFFSET 0.255332 -0.015649 -0.022946
							CHANNELS 3 Zrotation Yrotation Xrotation
							JOINT lwrist
							{
								OFFSET 0.265709 0.012698 -0.007375
								CHANNELS 3 Zrotation Yrotation Xrotation
								End Site
								{
									OFFSET 0.000000 0.000000 0.000000
								}
							}
						}
					}
				}
				JOINT rclavicle
				{
					OFFSET -0.082954 0.112472 -0.023707
					CHANNELS 3 Zrotation Yrotation Xrotation
					JOINT rshoulder
					{
						OFFSET -0.113228 0.046853 -0.008472
						CHANNELS 3 Zrotation Yrotation Xrotation
						JOINT relbow
						{
							OFFSET -0.260127 -0.014369 -0.031269
							CHANNELS 3 Zrotation Yrotation Xrotation
							JOINT rwrist
							{
								OFFSET -0.269108 0.006794 -0.006027
								CHANNELS 3 Zrotation Yrotation Xrotation
								End Site
								{
									OFFSET 0.000000 0.000000 0.000000
								}
							}
						}
					}
				}
			}
		}
	}
}
MOTION
Frames: 13
Frame Time: 0.033333
1.245571 0.543160 0.647363 84.486152 -0.518296 168.758097 -2.940117 2.651289 0.104242 1.634852 -12.386919 -1.180365 -8.922339 8.779461 0.161685 0.000000 -0.000000 0.000000 4.858052 -8.089169 2.585148 -2.984595 -0.541445 -1.127593 16.417035 -3.760116 7.537799 0.000000 -0.000000 0.000000 -1.576993 0.052147 13.641363 -1.748937 -8.163911 -9.741665 0.627011 6.363597 -0.678942 -16.560711 -7.886007 -7.757632 11.224516 -17.492255 -19.776192 42.598444 -5.096173 -23.615470 12.991618 -20.945514 -22.986220 21.295561 -45.940533 -24.363023 -5.586014 -11.961387 -13.502617 -28.716113 15.929201 -14.485649 47.914686 12.732939 15.575139 43.560887 74.844818 49.681334 13.826910 22.220528 -42.119579 
1.245382 0.546133 0.649329 84.483792 0.111512 169.495706 -2.347511 3.061551 -0.212439 2.203681 -10.827247 -2.162435 -8.849702 9.725594 -0.159765 0.000000 -0.000000 0.000000 5.377730 -6.309517 2.087965 -2.641276 1.049180 0.289533 16.148203 -4.977786 7.747191 0.000000 -0.000000 0.000000 -2.570799 -0.490019 13.371516 0.173832 -10.353324 -10.674030 1.393680 3.320784 -0.142803 -16.578230 -3.614730 -11.044992 8.961000 -14.543436 -18.662776 44.995989 -7.727354 -21.740497 11.903844 -21.910413 -25.884342 19.999494 -36.107059 -24.551787 3.208808 -10.640877 -5.547639 -29.089102 13.443808 -16.889062 50.344633 11.884306 18.611003 57.383757 79.639086 65.029936 13.894211 23.820742 -43.147117 
1.245582 0.550222 0.651017 84.502171 0.823614 170.440523 -1.904441 3.354341 -0.544328 2.810771 -9.389957 -3.234330 -8.632220 10.492802 -0.687683 0.000000 -0.000000 0.000000 5.873273 -4.699643 1.447149 -2.199324 2.710810 1.480720 15.958062 -6.061784 8.378360 0.000000 -0.000000 0.000000 -3.353561 -1.351302 12.998759 1.960971 -12.549397 -11.433341 2.026396 0.461244 0.393782 -16.478481 -0.050280 -13.976338 7.423173 -11.111589 -18.354358 45.854892 -9.343694 -20.139264 11.735277 -21.944450 -27.978770 18.497058 -29.687064 -25.398732 12.457139 -11.870831 0.944294 -28.828966 10.259548 -18.900865 51.758880 10.961275 21.372010 92.301457 83.343645 101.647541 13.043943 25.018885 -43.226867 
1.246304 0.554613 0.651711 84.727847 1.573267 171.341101 -1.225864 3.603917 -0.598565 3.237118 -8.044066 -4.022956 -8.788345 10.717587 -1.016823 0.000000 -0.000000 0.000000 6.641005 -3.681435 1.039236 -2.108711 4.157195 1.425212 16.283977 -6.416277 9.456686 0.000000 -0.000000 0.000000 -4.038563 -1.844408 12.483505 3.978005 -14.498287 -11.918589 2.602154 -1.879398 0.835306 -16.711252 3.147512 -15.474113 6.567186 -8.492666 -18.658150 46.137019 -10.298850 -18.484417 11.623234 -21.615270 -29.568781 16.619221 -25.404054 -26.059877 17.438133 -13.691965 3.818009 -28.024432 6.298374 -19.992173 52.618891 8.973733 23.223572 144.831246 82.126317 156.763096 11.489391 25.459264 -42.845628 
1.246932 0.558277 0.652480 84.657878 2.707768 172.990580 -0.696968 3.526616 -1.496991 3.210968 -6.830634 -3.901629 -9.064290 11.005536 -0.997432 0.000000 -0.000000 0.000000 7.287273 -1.994243 -0.441282 -2.213505 5.128145 0.730074 16.533802 -6.957194 8.998218 0.000000 -0.000000 0.000000 -4.788435 -1.867001 10.645633 5.526124 -15.802038 -12.234682 3.004269 -3.894935 1.746548 -17.277167 5.962180 -16.307455 5.742113 -6.681821 -19.389206 45.730232 -11.267541 -16.727685 12.637264 -20.671746 -31.072930 14.035857 -22.258675 -27.880303 17.078196 -14.781434 7.284078 -26.385925 1.363673 -20.459168 52.846267 5.902321 24.195474 166.422923 77.240938 178.093625 10.998356 25.308405 -37.653603 
1.249672 0.561718 0.653609 84.264858 3.596208 174.447820 -0.706595 3.384295 -2.463982 3.024816 -6.147666 -2.730010 -9.411668 11.122295 -0.767009 0.000000 -0.000000 0.000000 7.430293 -0.581629 -2.072952 -2.231340 5.043890 -0.069310 16.962557 -7.644355 7.819785 0.000000 -0.000000 0.000000 -5.339842 -1.984758 8.725545 6.279070 -16.637323 -12.939106 3.203791 -5.607741 3.045110 -18.137282 8.021096 -16.390998 5.319831 -5.443923 -20.532362 44.431570 -12.048376 -15.250469 13.790226 -20.562674 -31.445705 12.051095 -19.522951 -31.568468 15.293033 -15.541490 12.634638 -23.584625 -3.703772 -20.449186 51.172346 1.994381 24.077118 170.531360 72.421945 177.837691 10.441395 25.243716 -30.967875 
1.252742 0.566407 0.654019 84.139743 4.094786 175.442844 -0.495740 3.342982 -2.680565 2.409523 -6.925535 -1.388436 -9.078078 11.713125 -0.361650 0.000000 -0.000000 0.000000 7.725673 0.054012 -3.656164 -2.018654 4.945178 0.149136 16.722813 -7.943039 6.612083 0.000000 -0.000000 0.000000 -5.235790 -2.367226 7.622004 7.266198 -17.344043 -14.393594 3.007702 -6.840897 3.825414 -19.305052 11.098155 -15.339073 4.704350 -5.105670 -21.525646 42.812360 -13.468192 -13.390744 13.011238 -20.402028 -33.321720 10.804636 -17.232344 -25.974058 13.792752 -14.898025 9.393044 -21.624716 -7.197579 -18.443659 48.461163 -3.163931 21.298385 166.454675 67.164529 -176.549790 4.458901 26.883751 -44.468127 
1.255050 0.571448 0.653894 83.656203 4.699606 176.052532 -0.760858 3.324683 -2.495603 1.658187 -7.127848 -0.022101 -8.622991 11.987383 0.256264 0.000000 -0.000000 0.000000 7.571112 1.194864 -4.874002 -1.757386 5.945002 1.283971 16.284426 -8.514480 6.192225 0.000000 -0.000000 0.000000 -5.121404 -3.059043 7.013743 7.840728 -18.179466 -15.340366 2.879403 -8.026455 4.353413 -20.198888 12.850557 -16.011782 4.007858 -3.140050 -21.232454 41.496441 -13.953972 -12.235311 11.350601 -19.463514 -33.248563 9.238756 -15.394844 -24.633456 12.391633 -15.127947 11.505926 -21.236525 -10.403319 -17.841922 48.082728 -7.886783 21.423773 169.987794 64.135438 -170.995157 6.198135 27.471321 -43.380055 
1.256934 0.576066 0.652261 83.313663 5.494449 176.183550 -0.934650 3.761656 -1.986660 0.951535 -7.093438 1.124032 -8.442537 12.227946 1.177017 0.000000 -0.000000 0.000000 7.497030 2.060527 -5.474657 -1.210733 7.513123 3.377146 15.827484 -8.659921 6.300776 0.000000 -0.000000 0.000000 -4.685710 -3.987902 6.682426 8.383955 -19.320168 -15.316724 2.841930 -8.812043 3.991376 -21.048459 14.303897 -16.950174 4.052731 -1.000926 -21.363310 40.084950 -14.852940 -11.223879 9.304765 -16.787333 -32.718998 7.479077 -14.354246 -23.192077 10.523963 -15.316277 14.314867 -21.091815 -12.185465 -17.306641 47.146651 -11.375618 19.869531 173.308724 61.729624 -164.860098 11.126770 28.452670 -36.818027 
1.257758 0.579889 0.650444 83.112960 6.698245 176.380665 -0.988191 4.282239 -1.809539 0.532167 -6.627215 1.646436 -8.433979 12.495286 2.359727 0.000000 -0.000000 0.000000 7.588413 3.125878 -5.918219 -0.572562 8.916584 6.128174 15.394740 -8.611216 6.510654 0.000000 -0.000000 0.000000 -4.199085 -4.925655 6.140704 8.875095 -20.285706 -14.832460 2.909781 -9.419069 3.456592 -21.436678 15.817801 -17.641835 3.999749 1.430524 -21.654635 38.682749 -15.519560 -10.367434 6.976944 -13.663566 -31.874694 5.805961 -13.547794 -21.751254 8.888890 -15.610452 17.064807 -21.257219 -13.381967 -17.115064 46.103886 -13.207646 17.820318 177.284967 59.178624 -159.108556 16.293412 29.062397 -31.814767 
1.258493 0.583308 0.648629 83.037877 8.015083 175.984646 -1.107006 4.888023 -1.130240 0.729081 -6.363697 1.127496 -8.376387 12.457605 3.142651 0.000000 -0.000000 0.000000 7.755612 3.494103 -5.311026 -0.119315 9.505993 8.831692 15.265287 -8.549996 6.859553 0.000000 -0.000000 0.000000 -3.727924 -5.746344 6.604993 9.310641 -20.985323 -14.588443 3.022648 -9.750034 2.939157 -21.201516 16.979637 -18.103658 3.865610 3.644009 -21.795472 37.513010 -15.735612 -9.757300 4.207305 -11.263266 -30.909203 5.049243 -12.677104 -19.942660 7.362811 -15.745248 19.476095 -21.827307 -14.333259 -17.437436 45.258039 -13.671362 15.596068 -178.656601 56.468162 -153.786615 20.551354 29.448984 -28.306295 
1.258736 0.585823 0.647118 82.905383 9.621222 175.436294 -1.421466 5.457660 -0.326749 1.416554 -6.110882 -0.560107 -8.019841 12.165411 2.918834 0.000000 -0.000000 0.000000 7.792311 3.636401 -4.332582 0.131666 9.623971 11.442311 14.538586 -9.102797 7.082884 0.000000 -0.000000 0.000000 -3.229731 -6.539091 7.367783 9.381226 -21.564031 -14.342160 2.996055 -9.734913 2.255765 -20.560959 17.565823 -18.420782 4.260326 6.045424 -21.795304 36.585459 -15.943744 -9.324214 1.306354 -8.618448 -30.187153 4.627804 -12.633718 -18.586126 6.493099 -15.929894 21.455846 -22.736010 -14.127489 -17.628457 45.193063 -13.290059 12.845091 -173.846034 53.266340 -147.616823 25.568481 29.228865 -23.846543 
1.258367 0.587782 0.646286 82.728223 11.165919 174.831850 -1.902848 5.956783 0.379955 2.359080 -5.891226 -2.863869 -7.516399 11.791619 1.658616 0.000000 -0.000000 0.000000 7.609632 3.491065 -3.359067 0.427685 9.873974 14.074033 13.840733 -10.283851 7.182284 0.000000 -0.000000 0.000000 -2.991205 -7.189051 8.260570 9.141009 -21.975026 -13.766341 2.471582 -9.877948 1.975110 -18.763486 17.078247 -19.903065 5.384221 8.600566 -21.454284 36.314462 -15.078992 -9.216758 -1.164420 -6.434096 -29.645511 4.128935 -13.422734 -17.114440 7.051724 -16.597578 22.583579 -22.187700 -13.328538 -18.732695 44.685494 -11.945947 10.311158 -168.238817 49.540361 -141.339928 30.508529 28.603823 -19.299833 
